<svg xmlns="http://www.w3.org/2000/svg" viewBox="0 0 100 100" width="100" height="100" role="img" aria-label="Claremont Graduate University">
  <!-- CGU mark: maroon disc with stylised white flame -->
  <circle cx="50" cy="50" r="50" fill="#862633"/>
  <!-- Flame: single white shape with internal wisp cut-out, evenodd fill -->
  <path fill="#ffffff" fill-rule="evenodd" d="
    M 54 20
    C 51 28, 46 33, 41 40
    C 35 48, 32 55, 34 63
    C 36 72, 44 78, 53 78
    C 63 78, 70 71, 70 61
    C 70 53, 65 47, 60 41
    C 56 36, 54 30, 54 20
    Z
    M 50 44
    C 47 49, 44 53, 43 58
    C 42 63, 44 67, 48 69
    C 46 65, 46 60, 48 56
    C 50 51, 52 48, 50 44
    Z
  "/>
</svg>
